<?xml version="1.0" encoding="iso-8859-1"?>
<!-- Generator: Adobe Illustrator 19.0.0, SVG Export Plug-In . SVG Version: 6.00 Build 0)  -->
<svg version="1.1" id="Capa_1" xmlns="http://www.w3.org/2000/svg" xmlns:xlink="http://www.w3.org/1999/xlink" x="0px" y="0px"
	 viewBox="0 0 412.4 412.4" style="enable-background:new 0 0 412.4 412.4;" xml:space="preserve">
<g>
	<g>
		<path d="M361.2,53.8H118.4c-28,0-50.8,22.8-50.8,50.8v10H50.8c-28,0-50.8,22.8-50.8,50.8v142.4c0,28,22.8,50.8,50.8,50.8H294
			c28,0,50.8-22.8,50.8-50.8v-10h16.8c28,0,50.8-22.8,50.8-50.8V105C412.4,77,389.6,53.8,361.2,53.8z M12.8,182.6h318.8v29.2H12.8
			V182.6z M293.6,346.2H50.8c-20.8,0-38-17.2-38-38v-83.6h318.8v83.6h0C331.6,329,314.4,346.2,293.6,346.2z M332,169.8H12.8v-3.6
			c0-21.2,16.8-38,38-38H294c20.8,0,38,17.2,38,38V169.8z M399.6,247h-0.4c0,20.8-17.2,38-38,38h-16.8V166.2
			c0-28-22.8-50.8-50.8-50.8H80.4v-10c0-20.8,17.2-38,38-38h243.2c20.8,0,38,17.2,38,38V247z"/>
	</g>
</g>
<g>
	<g>
		<path d="M101.2,256.2H40c-3.6,0-6.4,2.8-6.4,6.4c0,3.6,2.8,6.4,6.4,6.4h61.2c3.6,0,6.4-2.8,6.4-6.4
			C107.6,259,104.8,256.2,101.2,256.2z"/>
	</g>
</g>
<g>
	<g>
		<path d="M163.2,256.2h-34.4c-3.6,0-6.4,2.8-6.4,6.4c0,3.6,2.8,6.4,6.4,6.4h34.4c3.6,0,6.4-2.8,6.4-6.4
			C169.6,259,166.8,256.2,163.2,256.2z"/>
	</g>
</g>
<g>
	<g>
		<path d="M271.2,255.8c-16,0-28.8,13.2-28.8,28.8c0,16,13.2,28.8,28.8,28.8c16,0,28.8-13.2,28.8-28.8
			C300,268.6,287.2,255.8,271.2,255.8z M271.2,300.6c-8.8,0-16-7.2-16-16s7.2-16,16-16s16,7.2,16,16S280,300.6,271.2,300.6z"/>
	</g>
</g>
<g>
</g>
<g>
</g>
<g>
</g>
<g>
</g>
<g>
</g>
<g>
</g>
<g>
</g>
<g>
</g>
<g>
</g>
<g>
</g>
<g>
</g>
<g>
</g>
<g>
</g>
<g>
</g>
<g>
</g>
</svg>
