<?xml version="1.0" encoding="UTF-8" standalone="no"?>
<!-- Generator: Adobe Illustrator 19.0.0, SVG Export Plug-In . SVG Version: 6.00 Build 0)  -->

<svg
   version="1.1"
   id="Capa_1"
   x="0px"
   y="0px"
   viewBox="0 0 438.601 438.601"
   style="enable-background:new 0 0 438.601 438.601;"
   xml:space="preserve"
   sodipodi:docname="carte1.svg"
   inkscape:version="1.1 (c68e22c387, 2021-05-23)"
   xmlns:inkscape="http://www.inkscape.org/namespaces/inkscape"
   xmlns:sodipodi="http://sodipodi.sourceforge.net/DTD/sodipodi-0.dtd"
   xmlns="http://www.w3.org/2000/svg"
   xmlns:svg="http://www.w3.org/2000/svg"><defs
   id="defs71" /><sodipodi:namedview
   id="namedview69"
   pagecolor="#ffffff"
   bordercolor="#666666"
   borderopacity="1.0"
   inkscape:pageshadow="2"
   inkscape:pageopacity="0.0"
   inkscape:pagecheckerboard="0"
   showgrid="false"
   inkscape:zoom="1.4865447"
   inkscape:cx="86.442071"
   inkscape:cy="207.52824"
   inkscape:window-width="1920"
   inkscape:window-height="1017"
   inkscape:window-x="1592"
   inkscape:window-y="-8"
   inkscape:window-maximized="1"
   inkscape:current-layer="Capa_1" />
<g
   id="g6"
   style="fill:#ffffff;fill-opacity:1">
	<g
   id="g4"
   style="fill:#ffffff;fill-opacity:1">
		<path
   d="M348.295,248.1l-15.2-90.8l-1.2-6.8c-2.8-18-18.8-31.2-36.8-31.2c-2,0-4,0-6,0.4l-166.8,27.6c-20.4,3.2-34,22.8-30.8,43.2    l16.4,97.6c2.8,18,18.4,31.2,36.4,31.2c2,0,4,0,6-0.4l167.2-27.6C337.895,288.1,351.495,268.5,348.295,248.1z M124.295,160.1    l166.8-27.6c1.2-0.4,2.8-0.4,4-0.4c12,0,22.4,8.8,24,20.4v0.4l-215.2,35.6v-0.4C101.895,174.9,111.095,162.5,124.295,160.1z     M106.295,201.7l215.2-35.6l2.8,16l-215.2,35.6L106.295,201.7z M315.495,278.5l-166.8,27.6c-13.2,2.4-26-7.2-28-20l-9.6-55.6    l215.2-35.6l9.2,55.2C337.495,263.7,328.695,276.1,315.495,278.5z"
   id="path2"
   style="fill:#ffffff;fill-opacity:1" />
	</g>
</g>
<g
   id="g12"
   style="fill:#ffffff;fill-opacity:1">
	<g
   id="g10"
   style="fill:#ffffff;fill-opacity:1">
		<path
   d="M180.295,243.7c-0.8-3.2-4-5.6-7.6-5.2l-42,6.8c-3.6,0.4-6,4-5.2,7.6c0.4,3.2,3.2,5.6,6.4,5.6c0.4,0,0.8,0,1.2,0l42-7.2    C178.695,250.9,181.095,247.3,180.295,243.7z"
   id="path8"
   style="fill:#ffffff;fill-opacity:1" />
	</g>
</g>
<g
   id="g18"
   style="fill:#ffffff;fill-opacity:1">
	<g
   id="g16"
   style="fill:#ffffff;fill-opacity:1">
		<path
   d="M223.095,236.9c-0.8-3.6-4-6-7.6-5.6l-23.6,4c-3.6,0.4-6,4-5.2,7.6c0.4,3.2,3.2,5.6,6.4,5.6c0.4,0,0.8,0,1.2,0l23.6-4    C221.495,244.1,223.895,240.5,223.095,236.9z"
   id="path14"
   style="fill:#ffffff;fill-opacity:1" />
	</g>
</g>
<g
   id="g24"
   style="fill:#ffffff;fill-opacity:1">
	<g
   id="g22"
   style="fill:#ffffff;fill-opacity:1">
		<path
   d="M315.095,237.3c-2-12.4-13.2-20.4-25.6-18.4c-12,2-20.4,13.6-18.4,25.6c1.6,10.8,10.8,18.4,22,18.4c1.2,0,2.4,0,3.6-0.4    c6-0.8,10.8-4,14.4-8.8C314.695,248.901,315.895,242.901,315.095,237.3z M300.695,246.1c-1.6,2-3.6,3.2-6,3.6    c-5.2,0.8-9.6-2.8-10.4-7.6s2.4-9.6,7.6-10.4c0.4,0,1.2,0,1.6,0c4.4,0,8.4,3.2,9.2,7.6C302.695,241.3,301.895,244.1,300.695,246.1    z"
   id="path20"
   style="fill:#ffffff;fill-opacity:1" />
	</g>
</g>
<g
   id="g30"
   style="fill:#ffffff;fill-opacity:1">
	<g
   id="g28"
   style="fill:#ffffff;fill-opacity:1">
		<path
   d="M411.895,230.1c-4-0.4-7.2,2.4-7.6,6.4c-8.8,96-88,168.4-184.8,168.4c-90,0-166.8-64.8-182.4-152.4l17.2,10.4    c3.2,2,7.6,0.8,9.6-2.4c2-3.2,0.8-7.6-2.4-9.6l-33.6-20.4c-1.6-1.2-3.6-1.2-5.6-0.8c-2,0.4-3.6,2-4.4,3.6l-17.2,35.6    c-1.6,3.6-0.4,7.6,3.2,9.6c0.8,0.4,2,0.8,3.2,0.8c2.8,0,5.2-1.6,6.4-4l9.6-20.8c16.8,94.4,99.2,164.4,196.4,164.4    c104,0,189.2-78,198.8-181.2C418.695,233.701,415.895,230.5,411.895,230.1z"
   id="path26"
   style="fill:#ffffff;fill-opacity:1" />
	</g>
</g>
<g
   id="g36"
   style="fill:#ffffff;fill-opacity:1">
	<g
   id="g34"
   style="fill:#ffffff;fill-opacity:1">
		<path
   d="M435.095,160.1c-3.2-2-7.6-1.2-9.6,2.4l-10.4,16.8c-5.2-24.8-14.8-48.4-28.4-69.6c0,0,0-0.4-0.4-0.4    c-7.2-11.2-16-21.6-25.6-31.2c-13.6-13.6-28.4-24.8-45.2-34h-0.4c-29.2-16-62.4-24.4-95.6-24.4c-102.8,0-188,77.2-198.4,179.2    c-0.4,4,2.4,7.2,6.4,7.6c0.4,0,0.4,0,0.8,0c3.6,0,6.8-2.8,7.2-6.4c9.6-94.8,88.8-166.4,184.4-166.4c31.2,0,62,8,89.2,22.8h0.4    c15.2,8.4,29.2,18.8,41.6,31.2c8.4,8.4,15.6,17.2,22.4,26.8c0,0,0,0.4,0.4,0.4v0.4c14,20.4,23.6,44,28,68l-18-13.6    c-3.2-2.4-7.6-1.6-10,1.6c-2.4,3.2-1.6,7.6,1.6,10l31.6,23.6c1.2,0.8,2.8,1.6,4.4,1.6c0.4,0,0.8,0,1.2,0c2-0.4,3.6-1.6,4.8-3.2    l20.4-33.6C439.495,166.5,438.295,162.1,435.095,160.1z"
   id="path32"
   style="fill:#ffffff;fill-opacity:1" />
	</g>
</g>
<g
   id="g38">
</g>
<g
   id="g40">
</g>
<g
   id="g42">
</g>
<g
   id="g44">
</g>
<g
   id="g46">
</g>
<g
   id="g48">
</g>
<g
   id="g50">
</g>
<g
   id="g52">
</g>
<g
   id="g54">
</g>
<g
   id="g56">
</g>
<g
   id="g58">
</g>
<g
   id="g60">
</g>
<g
   id="g62">
</g>
<g
   id="g64">
</g>
<g
   id="g66">
</g>
</svg>
