<?xml version="1.0" encoding="UTF-8" standalone="no"?>
<!-- Generator: Adobe Illustrator 19.0.0, SVG Export Plug-In . SVG Version: 6.00 Build 0)  -->

<svg
   version="1.1"
   id="Capa_1"
   x="0px"
   y="0px"
   viewBox="0 0 386.005 386.005"
   style="enable-background:new 0 0 386.005 386.005;"
   xml:space="preserve"
   sodipodi:docname="carte2.svg"
   inkscape:version="1.1 (c68e22c387, 2021-05-23)"
   xmlns:inkscape="http://www.inkscape.org/namespaces/inkscape"
   xmlns:sodipodi="http://sodipodi.sourceforge.net/DTD/sodipodi-0.dtd"
   xmlns="http://www.w3.org/2000/svg"
   xmlns:svg="http://www.w3.org/2000/svg"><defs
   id="defs59" /><sodipodi:namedview
   id="namedview57"
   pagecolor="#ffffff"
   bordercolor="#666666"
   borderopacity="1.0"
   inkscape:pageshadow="2"
   inkscape:pageopacity="0.0"
   inkscape:pagecheckerboard="0"
   showgrid="false"
   inkscape:zoom="1.6890973"
   inkscape:cx="192.70649"
   inkscape:cy="192.70649"
   inkscape:window-width="1920"
   inkscape:window-height="1017"
   inkscape:window-x="1592"
   inkscape:window-y="-8"
   inkscape:window-maximized="1"
   inkscape:current-layer="Capa_1" />
<g
   id="g6"
   style="fill:#ffffff;fill-opacity:1">
	<g
   id="g4"
   style="fill:#ffffff;fill-opacity:1">
		<path
   d="M344.805,216.603v-115.2c0-28-22.8-50.8-50.8-50.8h-243.2c-28,0-50.8,22.8-50.8,50.8v142.4c-0.4,28,22.4,50.8,50.8,50.8    h216.4c8.4,23.6,31.2,40.8,57.6,40.8c33.6,0,61.2-27.6,61.2-61.2C386.005,247.403,368.805,224.603,344.805,216.603z     M12.805,101.403c0-20.8,16.8-38,38-38h243.2c20.8,0,38,17.2,38,38v3.6h-319.2V101.403z M12.805,117.803h318.8v29.2h-318.8    V117.803z M264.005,281.803h-213.2c-20.8,0-38-17.2-38-38v-83.6h318.8v53.2c-2.4-0.4-4.4-0.4-6.8-0.4c-33.6,0-61.2,27.6-61.2,61.2    C263.605,276.603,264.005,279.403,264.005,281.803z M324.405,322.603c-22.4,0-40.8-15.2-46.4-35.6c-1.2-4-1.6-8.4-1.6-12.8    c0-26.8,21.6-48.4,48.4-48.4c26.4,0.4,48,22,48,48.4C372.805,301.003,351.205,322.603,324.405,322.603z"
   id="path2"
   style="fill:#ffffff;fill-opacity:1" />
	</g>
</g>
<g
   id="g12"
   style="fill:#ffffff;fill-opacity:1">
	<g
   id="g10"
   style="fill:#ffffff;fill-opacity:1">
		<path
   d="M101.205,191.803h-61.2c-3.6,0-6.4,2.8-6.4,6.4c0,3.6,2.8,6.4,6.4,6.4h61.2c3.6,0,6.4-2.8,6.4-6.4    C107.605,194.603,104.805,191.803,101.205,191.803z"
   id="path8"
   style="fill:#ffffff;fill-opacity:1" />
	</g>
</g>
<g
   id="g18"
   style="fill:#ffffff;fill-opacity:1">
	<g
   id="g16"
   style="fill:#ffffff;fill-opacity:1">
		<path
   d="M163.205,191.803h-34.4c-3.6,0-6.4,2.8-6.4,6.4c0,3.6,2.8,6.4,6.4,6.4h34.4c3.6,0,6.4-2.8,6.4-6.4    C169.605,194.603,166.805,191.803,163.205,191.803z"
   id="path14"
   style="fill:#ffffff;fill-opacity:1" />
	</g>
</g>
<g
   id="g24"
   style="fill:#ffffff;fill-opacity:1">
	<g
   id="g22"
   style="fill:#ffffff;fill-opacity:1">
		<path
   d="M358.405,254.203c-2-2.8-6-3.6-9.2-1.6l-38,27.6l-9.2-15.2c-2-3.2-6-4-8.8-2.4c-3.2,2-4,5.6-2.4,8.8l12.8,22    c0.8,1.6,2.4,2.8,4.4,3.2c0.4,0,0.8,0,1.2,0c1.2,0,2.8-0.4,4-1.2l43.6-32C359.605,261.403,360.405,257.403,358.405,254.203z"
   id="path20"
   style="fill:#ffffff;fill-opacity:1" />
	</g>
</g>
<g
   id="g26">
</g>
<g
   id="g28">
</g>
<g
   id="g30">
</g>
<g
   id="g32">
</g>
<g
   id="g34">
</g>
<g
   id="g36">
</g>
<g
   id="g38">
</g>
<g
   id="g40">
</g>
<g
   id="g42">
</g>
<g
   id="g44">
</g>
<g
   id="g46">
</g>
<g
   id="g48">
</g>
<g
   id="g50">
</g>
<g
   id="g52">
</g>
<g
   id="g54">
</g>
</svg>
