<?xml version="1.0" encoding="iso-8859-1"?>
<!-- Generator: Adobe Illustrator 19.0.0, SVG Export Plug-In . SVG Version: 6.00 Build 0)  -->
<svg version="1.1" id="Capa_1" xmlns="http://www.w3.org/2000/svg" xmlns:xlink="http://www.w3.org/1999/xlink" x="0px" y="0px"
	 viewBox="0 0 386.005 386.005" style="enable-background:new 0 0 386.005 386.005;" xml:space="preserve">
<g>
	<g>
		<path d="M344.805,216.603v-115.2c0-28-22.8-50.8-50.8-50.8h-243.2c-28,0-50.8,22.8-50.8,50.8v142.4c-0.4,28,22.4,50.8,50.8,50.8
			h216.4c8.4,23.6,31.2,40.8,57.6,40.8c33.6,0,61.2-27.6,61.2-61.2C386.005,247.403,368.805,224.603,344.805,216.603z
			 M12.805,101.403c0-20.8,16.8-38,38-38h243.2c20.8,0,38,17.2,38,38v3.6h-319.2V101.403z M12.805,117.803h318.8v29.2h-318.8
			V117.803z M264.005,281.803h-213.2c-20.8,0-38-17.2-38-38v-83.6h318.8v53.2c-2.4-0.4-4.4-0.4-6.8-0.4c-33.6,0-61.2,27.6-61.2,61.2
			C263.605,276.603,264.005,279.403,264.005,281.803z M324.405,322.603c-22.4,0-40.8-15.2-46.4-35.6c-1.2-4-1.6-8.4-1.6-12.8
			c0-26.8,21.6-48.4,48.4-48.4c26.4,0.4,48,22,48,48.4C372.805,301.003,351.205,322.603,324.405,322.603z"/>
	</g>
</g>
<g>
	<g>
		<path d="M101.205,191.803h-61.2c-3.6,0-6.4,2.8-6.4,6.4c0,3.6,2.8,6.4,6.4,6.4h61.2c3.6,0,6.4-2.8,6.4-6.4
			C107.605,194.603,104.805,191.803,101.205,191.803z"/>
	</g>
</g>
<g>
	<g>
		<path d="M163.205,191.803h-34.4c-3.6,0-6.4,2.8-6.4,6.4c0,3.6,2.8,6.4,6.4,6.4h34.4c3.6,0,6.4-2.8,6.4-6.4
			C169.605,194.603,166.805,191.803,163.205,191.803z"/>
	</g>
</g>
<g>
	<g>
		<path d="M358.405,254.203c-2-2.8-6-3.6-9.2-1.6l-38,27.6l-9.2-15.2c-2-3.2-6-4-8.8-2.4c-3.2,2-4,5.6-2.4,8.8l12.8,22
			c0.8,1.6,2.4,2.8,4.4,3.2c0.4,0,0.8,0,1.2,0c1.2,0,2.8-0.4,4-1.2l43.6-32C359.605,261.403,360.405,257.403,358.405,254.203z"/>
	</g>
</g>
<g>
</g>
<g>
</g>
<g>
</g>
<g>
</g>
<g>
</g>
<g>
</g>
<g>
</g>
<g>
</g>
<g>
</g>
<g>
</g>
<g>
</g>
<g>
</g>
<g>
</g>
<g>
</g>
<g>
</g>
</svg>
