<?xml version="1.0" encoding="UTF-8" standalone="no"?>
<!-- Generator: Adobe Illustrator 19.0.0, SVG Export Plug-In . SVG Version: 6.00 Build 0)  -->

<svg
   version="1.1"
   id="Capa_1"
   x="0px"
   y="0px"
   viewBox="0 0 512 512"
   style="enable-background:new 0 0 512 512;"
   xml:space="preserve"
   sodipodi:docname="loupe.svg"
   inkscape:version="1.1 (c68e22c387, 2021-05-23)"
   xmlns:inkscape="http://www.inkscape.org/namespaces/inkscape"
   xmlns:sodipodi="http://sodipodi.sourceforge.net/DTD/sodipodi-0.dtd"
   xmlns="http://www.w3.org/2000/svg"
   xmlns:svg="http://www.w3.org/2000/svg"><defs
   id="defs47" /><sodipodi:namedview
   id="namedview45"
   pagecolor="#ffffff"
   bordercolor="#666666"
   borderopacity="1.0"
   inkscape:pageshadow="2"
   inkscape:pageopacity="0.0"
   inkscape:pagecheckerboard="0"
   showgrid="false"
   inkscape:zoom="1.2734375"
   inkscape:cx="255.60736"
   inkscape:cy="256.39264"
   inkscape:window-width="1600"
   inkscape:window-height="837"
   inkscape:window-x="-8"
   inkscape:window-y="166"
   inkscape:window-maximized="1"
   inkscape:current-layer="Capa_1" />
<g
   id="g6"
   style="fill:#008090;fill-opacity:1">
	<g
   id="g4"
   style="fill:#008090;fill-opacity:1">
		<path
   d="M225.474,0C101.151,0,0,101.151,0,225.474c0,124.33,101.151,225.474,225.474,225.474    c124.33,0,225.474-101.144,225.474-225.474C450.948,101.151,349.804,0,225.474,0z M225.474,409.323    c-101.373,0-183.848-82.475-183.848-183.848S124.101,41.626,225.474,41.626s183.848,82.475,183.848,183.848    S326.847,409.323,225.474,409.323z"
   id="path2"
   style="fill:#008090;fill-opacity:1" />
	</g>
</g>
<g
   id="g12"
   style="fill:#008090;fill-opacity:1">
	<g
   id="g10"
   style="fill:#008090;fill-opacity:1">
		<path
   d="M505.902,476.472L386.574,357.144c-8.131-8.131-21.299-8.131-29.43,0c-8.131,8.124-8.131,21.306,0,29.43l119.328,119.328    c4.065,4.065,9.387,6.098,14.715,6.098c5.321,0,10.649-2.033,14.715-6.098C514.033,497.778,514.033,484.596,505.902,476.472z"
   id="path8"
   style="fill:#008090;fill-opacity:1" />
	</g>
</g>
<g
   id="g14">
</g>
<g
   id="g16">
</g>
<g
   id="g18">
</g>
<g
   id="g20">
</g>
<g
   id="g22">
</g>
<g
   id="g24">
</g>
<g
   id="g26">
</g>
<g
   id="g28">
</g>
<g
   id="g30">
</g>
<g
   id="g32">
</g>
<g
   id="g34">
</g>
<g
   id="g36">
</g>
<g
   id="g38">
</g>
<g
   id="g40">
</g>
<g
   id="g42">
</g>
</svg>
